<svg width="88" height="64" viewBox="-30 -25 108 64" fill="none" xmlns="http://www.w3.org/2000/svg">
<path d="M67.75 42.5C67.5511 42.5 67.3603 42.421 67.2197 42.2803C67.079 42.1397 67 41.9489 67 41.75V23.1936C67.0001 22.9971 67.0516 22.804 67.1494 22.6336C67.2473 22.4632 67.3881 22.3214 67.5578 22.2223C68.125 21.8928 69.2678 21.5 71.5 21.5C73.2442 21.5 75.1952 22.1895 76.9164 22.7975C78.3025 23.2873 79.6117 23.75 80.5 23.75C81.6435 23.7465 82.7748 23.5154 83.8281 23.0703C83.9564 23.0162 84.0961 22.9946 84.2347 23.0075C84.3733 23.0205 84.5066 23.0675 84.6226 23.1445C84.7386 23.2214 84.8338 23.3259 84.8997 23.4486C84.9655 23.5712 85 23.7083 85 23.8475V34.13C84.9998 34.3123 84.9465 34.4905 84.8466 34.6429C84.7467 34.7954 84.6045 34.9154 84.4375 34.9883C84.0292 35.1669 82.5386 35.75 80.5 35.75C79.3684 35.75 77.9509 35.4153 76.4505 35.0605C74.7639 34.662 73.0202 34.25 71.5 34.25C69.7717 34.25 68.8872 34.5116 68.5 34.677V41.75C68.5 41.9489 68.421 42.1397 68.2803 42.2803C68.1397 42.421 67.9489 42.5 67.75 42.5Z" fill="black"/>
</svg>
