<svg width="80" height="64"  aria-hidden="true" viewBox="0 0 124 24" fill="none" xmlns="http://www.w3.org/2000/svg">
<path d="M35.5818 34.5589C34.595 33.6818 33.3207 33.1973 32.0005 33.1973C30.6803 33.1973 29.406 33.6818 28.4193 34.5589M38.4435 31.6972C36.6959 30.063 34.3927 29.1539 32.0001 29.1539C29.6075 29.1539 27.3042 30.063 25.5566 31.6972" stroke="black" stroke-width="1.5" stroke-linecap="round" stroke-linejoin="round"/>
<path d="M40.9864 28.5363C38.513 26.3298 35.3142 25.1104 31.9996 25.1104C28.6849 25.1104 25.4862 26.3298 23.0127 28.5363" stroke="black" stroke-width="1.5" stroke-linecap="round" stroke-linejoin="round"/>
<path d="M32 39.5C31.7033 39.5 31.4133 39.412 31.1666 39.2472C30.92 39.0824 30.7277 38.8481 30.6142 38.574C30.5006 38.2999 30.4709 37.9983 30.5288 37.7074C30.5867 37.4164 30.7296 37.1491 30.9393 36.9393C31.1491 36.7296 31.4164 36.5867 31.7074 36.5288C31.9983 36.4709 32.2999 36.5006 32.574 36.6142C32.8481 36.7277 33.0824 36.92 33.2472 37.1666C33.412 37.4133 33.5 37.7033 33.5 38C33.5 38.3978 33.342 38.7794 33.0607 39.0607C32.7794 39.342 32.3978 39.5 32 39.5Z" fill="black"/>
</svg>
